{"title":"Junooniyat (2016) 720p HEVC DvDRip AAC 5.1 Esub -DDR","uid":15645282,"size":1797277045,"categoryP":"video","categoryS":"hd___movies","magnet":"?xt=urn:btih:a649d9b2c7806f50ec5eb503d023fa79d3050763&amp;dn=Junooniyat+%282016%29+720p+HEVC+DvDRip+AAC+5.1+Esub+-DDR&amp;tr=udp%3A%2F%2Ftracker.leechers-paradise.org%3A6969&amp;tr=udp%3A%2F%2Fzer0day.ch%3A1337&amp;tr=udp%3A%2F%2Fopen.demonii.com%3A1337&amp;tr=udp%3A%2F%2Ftracker.coppersurfer.tk%3A6969&amp;tr=udp%3A%2F%2Fexodus.desync.com%3A6969","seeders":17,"leechers":12,"uploader":"SaM","files":3,"time":1472048227,"description":"** Junooniyat **\r\n\r\n** 2016**\r\n\r\n** 720p / DvDRip / HEVC 10 Bits / AAC 5.1 **\r\n\r\n** English Subtitle(s) **\r\n\r\n\r\n\r\n[ SCREENS ]\r\n \nhttp://extraimago.com/image/wELz \nhttp://extraimago.com/image/wELU \nhttp://extraimago.com/image/wELM \nhttp://extraimago.com/image/wEL9 \nhttp://extraimago.com/image/wEL3 \nhttp://extraimago.com/image/wELb \nhttp://extraimago.com/image/wELh \nhttp://extraimago.com/image/wELd \nhttp://extraimago.com/image/wELI \nhttp://extraimago.com/image/wELl \nhttp://extraimago.com/image/wELi \nhttp://extraimago.com/image/wELm \nhttp://extraimago.com/image/wELR \nhttp://extraimago.com/image/wELQ \nhttp://extraimago.com/image/wELL\r\n\r\n[ Info ]\r\nSource : DVD9 @ DDR\r\nFormat : Matroska\r\nFile size : 1.67 GiB\r\nDuration : 2h 2mn\r\nOverall bit rate : 1 952 Kbps\r\n\r\nVideo\r\nFormat : HEVC\r\nFormat/Info : High Efficiency Video Coding\r\nFormat profile : Main   @Main\r\nCodec ID : V_MPEGH/ISO/HEVC\r\nDuration : 2h 2mn\r\nBit rate : 1 758 Kbps\r\nWidth : 1 280 pixels\r\nHeight : 544 pixels\r\nDisplay aspect ratio : 2.35:1\r\nFrame rate mode : Constant\r\nFrame rate : 23.976 (24000/1001) fps\r\ncolor space : YUV\r\nChroma subsampling : 4:2:0\r\nBit depth : 10 bits\r\nBits/(Pixel*Frame) : 0.105\r\nStream size : 1.50 GiB (90%)\r\n\r\nAudio\r\nFormat : AAC\r\nFormat/Info : Advanced Audio Codec\r\nFormat profile : LC\r\nCodec ID : A_AAC\r\nDuration : 2h 2mn\r\nBit rate : 192 Kbps\r\nChannel(s) : 6 channels\r\nChannel positions : Front: L C R, Side: L R, LFE\r\nSampling rate : 48.0 KHz\r\nFrame rate : 46.875 fps (1024 spf)\r\nCompression mode : Lossy\r\nDelay relative to video : 1ms\r\nStream size : 167 MiB (10%)\r\nLanguage : Hindi\r\nDefault : Yes\r\nForced : No\r\n\r\nChapters = YES","torrent":{"xt":"urn:btih:a649d9b2c7806f50ec5eb503d023fa79d3050763","amp;dn":"Junooniyat+%282016%29+720p+HEVC+DvDRip+AAC+5.1+Esub+-DDR","amp;tr":["udp%3A%2F%2Ftracker.leechers-paradise.org%3A6969","udp%3A%2F%2Fzer0day.ch%3A1337","udp%3A%2F%2Fopen.demonii.com%3A1337","udp%3A%2F%2Ftracker.coppersurfer.tk%3A6969","udp%3A%2F%2Fexodus.desync.com%3A6969"],"infoHash":"a649d9b2c7806f50ec5eb503d023fa79d3050763","infoHashBuffer":{"type":"Buffer","data":[166,73,217,178,199,128,111,80,236,94,181,3,208,35,250,121,211,5,7,99]},"announce":[],"urlList":[]}}